<svg width="61" height="61" viewBox="0 0 61 61" fill="none" xmlns="http://www.w3.org/2000/svg">
<path d="M59.0835 22.589C56.824 20.693 53.4431 20.9896 51.5505 23.2449L46.4638 29.2643V11.8097C46.4638 10.3468 45.8555 8.93007 44.7949 7.92274L38.0065 1.47425C37.0058 0.523623 35.6946 0 34.3143 0H5.36121C2.40509 0 0 2.40509 0 5.36121V55.6375C0 58.5936 2.40509 60.9987 5.36121 60.9987H41.1027C44.0588 60.9987 46.4639 58.5936 46.4639 55.6375V45.8726C46.6835 45.6125 59.7033 30.1905 59.7443 30.142C61.649 27.8721 61.3538 24.4938 59.0835 22.589ZM35.7415 4.25213C42.8915 11.0441 42.3837 10.5476 42.5177 10.7225H35.7415V4.25213ZM42.8897 55.6375C42.8897 56.6229 42.088 57.4246 41.1026 57.4246H5.36121C4.3758 57.4246 3.5741 56.6229 3.5741 55.6375V5.36121C3.5741 4.3758 4.3758 3.5741 5.36121 3.5741H32.1673V12.5094C32.1673 13.4964 32.9674 14.2965 33.9544 14.2965H42.8897V33.4936C42.1221 34.4019 35.9583 41.6956 35.2921 42.4839C34.7599 43.1182 34.3769 43.8792 34.1846 44.6844L32.5237 51.637C32.3666 52.2954 32.5948 52.9862 33.1133 53.4213C33.6322 53.8568 34.3522 53.9609 34.9727 53.692L41.5314 50.849C42.0238 50.6355 42.4831 50.3455 42.8897 49.997V55.6375ZM38.6391 44.0609L41.3767 46.3579L40.7679 47.0789C40.5908 47.2903 40.3631 47.4601 40.1099 47.5698L36.8307 48.9913L37.6612 45.515C37.7253 45.2465 37.8529 44.9929 38.0263 44.7863L38.6391 44.0609ZM43.6822 43.6268L40.9459 41.3309C41.2235 41.0024 50.2029 30.3767 50.8239 29.642L53.5545 31.9332L43.6822 43.6268ZM57.0099 27.8404L55.8603 29.2022L53.131 26.9121L54.2846 25.5471C54.9147 24.7962 56.0371 24.6982 56.7862 25.3268C57.5501 25.9677 57.6343 27.0963 57.0099 27.8404Z" fill="#FB4B3E"/>
<path d="M7 53H12.1579L18.0526 42L23.2105 53L26.8947 47.5L31.3158 53H35" stroke="#FB4B3E" stroke-width="3"/>
</svg>
