<svg width="24" height="24" viewBox="0 0 24 24" fill="none" xmlns="http://www.w3.org/2000/svg">
<path d="M19.4443 2H4.55566C3.14645 2 2 3.14648 2 4.5557V19.4443C2 20.8535 3.14645 22 4.55566 22H19.4443C20.8536 22 22 20.8535 22 19.4443V4.5557C22 3.14648 20.8536 2 19.4443 2ZM20.822 19.4443C20.822 20.204 20.2039 20.822 19.4443 20.822H4.55566C3.79602 20.822 3.17801 20.2039 3.17801 19.4443V17.2956L7.05516 13.9968C7.19664 13.8764 7.40305 13.8752 7.54586 13.9938L9.97453 16.0105C10.2087 16.205 10.5525 16.189 10.7677 15.9736L16.5383 10.1941C16.6426 10.0896 16.7642 10.0795 16.8277 10.0827C16.891 10.086 17.0111 10.1086 17.1042 10.2232L20.822 14.8009V19.4443H20.822ZM20.822 12.9322L18.0186 9.48043C17.7406 9.13809 17.3285 8.92879 16.888 8.90617C16.4479 8.88391 16.0163 9.04961 15.7047 9.36172L10.3138 14.761L8.29852 13.0876C7.71418 12.6023 6.87027 12.6074 6.29176 13.0996L3.17801 15.7489V4.5557C3.17801 3.79605 3.79602 3.17805 4.55566 3.17805H19.4443C20.204 3.17805 20.822 3.79605 20.822 4.5557V12.9322Z" fill="#FF4B3E"/>
<path d="M8.29543 4.46075C6.72922 4.46075 5.45508 5.73497 5.45508 7.30111C5.45508 8.86728 6.72926 10.1415 8.29543 10.1415C9.8616 10.1415 11.1358 8.86728 11.1358 7.30111C11.1358 5.73493 9.86164 4.46075 8.29543 4.46075ZM8.29543 8.96345C7.37879 8.96345 6.63309 8.21771 6.63309 7.30111C6.63309 6.38447 7.37879 5.63876 8.29543 5.63876C9.21207 5.63876 9.95777 6.3845 9.95777 7.30111C9.95777 8.21771 9.21207 8.96345 8.29543 8.96345Z" fill="#FF4B3E"/>
</svg>
