<svg width="30" height="35" viewBox="0 0 30 35" fill="none" xmlns="http://www.w3.org/2000/svg">
<path d="M26.5407 10.7583L27.9323 9.38606C28.473 8.85281 28.473 7.98817 27.9323 7.45518C27.3915 6.92192 26.515 6.92192 25.9742 7.45518L24.5827 8.82744C22.248 6.9091 19.411 5.7502 16.3847 5.4789V2.7309H17.7232C18.4878 2.7309 19.1077 2.11941 19.1077 1.36532C19.1077 0.611229 18.4878 0 17.7232 0H12.2769C11.5122 0 10.8923 0.611229 10.8923 1.36532C10.8923 2.11941 11.5122 2.7309 12.2769 2.7309H13.6153V5.4789C6.03986 6.15822 0 12.4339 0 20.2079C0 28.3833 6.7087 35 15.0001 35C23.2902 35 30 28.3844 30 20.2079C30 16.7157 28.7804 13.4086 26.5407 10.7583ZM14.9999 32.2691C8.25596 32.2691 2.76905 26.8586 2.76905 20.2079C2.76905 13.5576 8.25596 8.14705 14.9999 8.14705C21.744 8.14705 27.2307 13.5576 27.2307 20.2079C27.2307 26.8586 21.744 32.2691 14.9999 32.2691ZM21.4167 13.8804C21.9574 14.4137 21.9574 15.2783 21.4167 15.8113L15.979 21.1735C15.4383 21.7068 14.5615 21.7068 14.021 21.1735C13.4802 20.6403 13.4802 19.7756 14.021 19.2426L19.4583 13.8804C19.9991 13.3472 20.8759 13.3472 21.4167 13.8804Z" fill="#F79E1B"/>
</svg>
