<svg width="27" height="27" viewBox="0 0 27 27" fill="none" xmlns="http://www.w3.org/2000/svg">
<path d="M13.4987 3.68066C12.1444 3.68066 11.043 4.7821 11.043 6.13643C11.043 7.49077 12.1444 8.59215 13.4987 8.59215C14.8531 8.59215 15.9545 7.49071 15.9545 6.13643C15.9545 4.78216 14.853 3.68066 13.4987 3.68066ZM13.4987 7.36489C12.8216 7.36489 12.2703 6.8136 12.2703 6.13643C12.2703 5.45927 12.8216 4.90797 13.4987 4.90797C14.1759 4.90797 14.7272 5.45927 14.7272 6.13643C14.7272 6.8136 14.1759 7.36489 13.4987 7.36489Z" fill="black"/>
<path d="M26.3864 11.0454C26.7255 11.0454 27 10.7726 27 10.4335V7.97923C27 7.76292 26.8862 7.5622 26.6998 7.45192L14.6961 0.323354C14.6907 0.31973 14.6853 0.316739 14.6799 0.313747C13.9338 -0.0997091 13.0925 -0.11225 12.3032 0.322146L0.30024 7.45192C0.113849 7.56215 0 7.76292 0 7.97923V10.4335C0 10.7726 0.274468 11.0454 0.613655 11.0454H2.45456V22.0914C1.10081 22.0914 0 23.1921 0 24.5457V26.3864C0 26.7255 0.274468 27 0.613655 27H26.3864C26.7255 27 27 26.7256 27 26.3864V24.5457C27 23.1921 25.8992 22.0914 24.5455 22.0914V11.0454H26.3864ZM25.7727 24.5454V25.7727H1.22725V24.5454C1.22725 23.8689 1.77797 23.3182 2.4545 23.3182H3.06816H23.9318H24.5455C25.222 23.3181 25.7727 23.8688 25.7727 24.5454ZM3.68181 22.0909V11.0454H6.13638V22.0909H3.68181ZM7.36363 22.0909V11.0454H11.0454V22.0909H7.36363ZM12.2727 22.0909V11.0454H14.7273V22.0909H12.2727ZM15.9545 22.0909V11.0454H19.6363V22.0909H15.9545ZM20.8636 22.0909V11.0454H23.3182V22.0909H20.8636ZM1.22725 9.81818V8.32664L12.9121 1.38487C13.2945 1.17454 13.7007 1.17512 14.0783 1.38067L25.7727 8.32664V9.81818H1.22725Z" fill="black"/>
</svg>
