<svg width="62" height="62" viewBox="0 0 62 62" fill="none" xmlns="http://www.w3.org/2000/svg">
<path d="M30.9986 8.45172C27.8886 8.45172 25.3594 10.9809 25.3594 14.0909C25.3594 17.2008 27.8886 19.7299 30.9986 19.7299C34.1085 19.7299 36.6376 17.2007 36.6376 14.0909C36.6376 10.9811 34.1084 8.45172 30.9986 8.45172ZM30.9986 16.9118C29.4436 16.9118 28.1776 15.6459 28.1776 14.0909C28.1776 12.5359 29.4436 11.27 30.9986 11.27C32.5535 11.27 33.8195 12.5359 33.8195 14.0909C33.8195 15.6459 32.5535 16.9118 30.9986 16.9118Z" fill="#FB4B3E"/>
<path d="M60.5909 25.3636C61.3698 25.3636 62 24.7372 62 23.9584V18.3227C62 17.826 61.7386 17.3651 61.3106 17.1118L33.7465 0.742517C33.7341 0.734195 33.7217 0.727326 33.7094 0.720456C31.9962 -0.228962 30.0642 -0.25776 28.2519 0.739743L0.689441 17.1118C0.26143 17.3649 0 17.826 0 18.3227V23.9584C0 24.7372 0.630259 25.3636 1.40913 25.3636H5.6364V50.7284C2.52777 50.7284 0 53.2559 0 56.3641V60.591C0 61.3697 0.630259 62 1.40913 62H60.5909C61.3698 62 62 61.3699 62 60.591V56.3641C62 53.2559 59.4722 50.7284 56.3636 50.7284V25.3636H60.5909ZM59.1818 56.3636V59.1817H2.81813V56.3636C2.81813 54.8101 4.08275 53.5455 5.63627 53.5455H7.0454H54.9545H56.3636C57.9171 53.5453 59.1818 54.8099 59.1818 56.3636ZM8.45454 50.7272V25.3636H14.0909V50.7272H8.45454ZM16.9091 50.7272V25.3636H25.3636V50.7272H16.9091ZM28.1817 50.7272V25.3636H33.8181V50.7272H28.1817ZM36.6363 50.7272V25.3636H45.0908V50.7272H36.6363ZM47.9091 50.7272V25.3636H53.5455V50.7272H47.9091ZM2.81813 22.5455V19.1204L29.6501 3.18007C30.528 2.6971 31.4609 2.69842 32.3279 3.17042L59.1818 19.1204V22.5455H2.81813Z" fill="#FB4B3E"/>
</svg>
