<svg width="21" height="22" viewBox="0 0 21 22" fill="none" xmlns="http://www.w3.org/2000/svg">
<g clip-path="url(#clip0)">
<path fill-rule="evenodd" clip-rule="evenodd" d="M10.0216 0.750015C10.0335 1.16251 11.496 2.17502 13.2716 3.00001C15.0856 3.84284 17.1572 5.91439 18 7.72837C19.814 11.6326 21 11.9073 21 8.4231C21 5.03885 15.9612 0 12.5769 0C11.1596 0 10.0098 0.337523 10.0216 0.750015ZM0.666645 1.66666C0.299985 2.03332 0 3.98585 0 6.00563C0 14.8064 14.7629 25.8371 19.8 20.8C22.8273 17.7728 17.5865 12.5282 13.8598 14.8555C10.9521 16.6713 5.32864 11.0478 7.14451 8.14023C9.34951 4.6094 3.53482 -1.20146 0.666645 1.66666ZM9.99999 4.93264C9.99999 5.44556 10.877 6.14355 11.9488 6.48375C13.0207 6.82395 14.176 7.97926 14.5162 9.05116C14.8564 10.123 15.5544 11 16.0674 11C17.5742 11 17.1364 7.27918 15.4286 5.5714C13.7208 3.86363 9.99999 3.42578 9.99999 4.93264Z" fill="#FF4B3E"/>
</g>
<defs>
<clipPath id="clip0">
<rect width="21" height="22" fill="white"/>
</clipPath>
</defs>
</svg>
