<svg width="150" height="39" viewBox="0 0 150 39" fill="none" xmlns="http://www.w3.org/2000/svg">
<path d="M56.3909 16.9877L56.3679 7.50986L51.6489 15.3138H49.9996L45.2805 7.69082V16.9877H41.7986V1.15362H44.8682L50.8701 10.9934L56.7803 1.15362H59.8499L59.8728 16.9877H56.3909Z" fill="black"/>
<path d="M69.3542 17.1686C68.0561 17.1686 66.8878 16.9047 65.8493 16.3769C64.8261 15.834 64.0243 15.0876 63.444 14.1375C62.8636 13.1875 62.5735 12.1093 62.5735 10.9029C62.5735 9.69647 62.8636 8.61825 63.444 7.6682C64.0243 6.71816 64.8261 5.97924 65.8493 5.45144C66.8878 4.90855 68.0561 4.63711 69.3542 4.63711C70.6523 4.63711 71.813 4.90855 72.8362 5.45144C73.8594 5.97924 74.6612 6.71816 75.2415 7.6682C75.8218 8.61825 76.112 9.69647 76.112 10.9029C76.112 12.1093 75.8218 13.1875 75.2415 14.1375C74.6612 15.0876 73.8594 15.834 72.8362 16.3769C71.813 16.9047 70.6523 17.1686 69.3542 17.1686ZM69.3542 14.2733C70.2705 14.2733 71.0188 13.9717 71.5992 13.3685C72.1948 12.7502 72.4926 11.9283 72.4926 10.9029C72.4926 9.87743 72.1948 9.06311 71.5992 8.4599C71.0188 7.84162 70.2705 7.53248 69.3542 7.53248C68.4379 7.53248 67.6819 7.84162 67.0863 8.4599C66.4907 9.06311 66.1929 9.87743 66.1929 10.9029C66.1929 11.9283 66.4907 12.7502 67.0863 13.3685C67.6819 13.9717 68.4379 14.2733 69.3542 14.2733Z" fill="black"/>
<path d="M84.4344 17.1686C83.121 17.1686 81.9374 16.9047 80.8836 16.3769C79.8452 15.834 79.0281 15.0876 78.4325 14.1375C77.8522 13.1875 77.562 12.1093 77.562 10.9029C77.562 9.69647 77.8522 8.61825 78.4325 7.6682C79.0281 6.71816 79.8452 5.97924 80.8836 5.45144C81.9374 4.90855 83.121 4.63711 84.4344 4.63711C85.7325 4.63711 86.8626 4.90855 87.8247 5.45144C88.8021 5.97924 89.5123 6.74078 89.9551 7.73606L87.1833 9.20637C86.5419 8.09044 85.6179 7.53248 84.4114 7.53248C83.4799 7.53248 82.7086 7.83408 82.0978 8.43728C81.4869 9.04049 81.1814 9.86235 81.1814 10.9029C81.1814 11.9434 81.4869 12.7653 82.0978 13.3685C82.7086 13.9717 83.4799 14.2733 84.4114 14.2733C85.6332 14.2733 86.5572 13.7153 87.1833 12.5994L89.9551 14.0923C89.5123 15.0574 88.8021 15.8114 87.8247 16.3543C86.8626 16.8972 85.7325 17.1686 84.4344 17.1686Z" fill="black"/>
<path d="M99.7413 10.6541C100.474 10.8803 101.039 11.2271 101.436 11.6946C101.849 12.1621 102.055 12.72 102.055 13.3685C102.055 14.1375 101.788 14.8161 101.253 15.4043C100.719 15.9773 99.9856 16.4222 99.054 16.7388C98.1225 17.0555 97.0687 17.2139 95.8928 17.2139C94.9306 17.2139 93.9838 17.1158 93.0522 16.9198C92.1206 16.7238 91.2577 16.4297 90.4636 16.0376L91.4257 13.572C92.7238 14.1903 94.1594 14.4995 95.7324 14.4995C96.5724 14.4995 97.229 14.3788 97.7025 14.1375C98.1912 13.8812 98.4355 13.5268 98.4355 13.0744C98.4355 12.6823 98.2675 12.3883 97.9316 12.1922C97.5956 11.9811 97.1069 11.8755 96.4655 11.8755H93.9456V9.68139H96.1447C96.7709 9.68139 97.252 9.58337 97.5879 9.38733C97.9239 9.19129 98.0919 8.90477 98.0919 8.52777C98.0919 8.13568 97.8781 7.83408 97.4505 7.62296C97.0381 7.41184 96.4425 7.30628 95.6637 7.30628C94.4725 7.30628 93.1744 7.58526 91.7693 8.14322L90.8988 5.70026C92.6093 4.96134 94.2739 4.59187 95.8928 4.59187C97.0076 4.59187 98.0003 4.72759 98.8708 4.99903C99.7565 5.27047 100.451 5.6701 100.955 6.1979C101.459 6.71062 101.711 7.31382 101.711 8.0075C101.711 8.58054 101.536 9.10081 101.184 9.56829C100.833 10.0207 100.352 10.3826 99.7413 10.6541Z" fill="black"/>
<path d="M109.442 4.63711C111.351 4.63711 112.817 5.08952 113.841 5.99432C114.864 6.88404 115.375 8.2337 115.375 10.0433V16.9877H112.031V15.4721C111.359 16.6031 110.107 17.1686 108.274 17.1686C107.327 17.1686 106.502 17.0103 105.8 16.6936C105.113 16.3769 104.586 15.9396 104.219 15.3816C103.853 14.8237 103.669 14.1903 103.669 13.4816C103.669 12.3506 104.097 11.4608 104.952 10.8124C105.823 10.164 107.159 9.83973 108.961 9.83973H111.802C111.802 9.07065 111.565 8.48252 111.092 8.07536C110.618 7.65312 109.908 7.442 108.961 7.442C108.304 7.442 107.655 7.54756 107.014 7.75868C106.388 7.95472 105.853 8.22616 105.41 8.573L104.128 6.10742C104.8 5.63994 105.601 5.27802 106.533 5.02165C107.48 4.76529 108.45 4.63711 109.442 4.63711ZM109.167 14.7935C109.778 14.7935 110.32 14.6578 110.794 14.3864C111.267 14.0998 111.603 13.6851 111.802 13.1423V11.8982H109.351C107.884 11.8982 107.151 12.3732 107.151 13.3232C107.151 13.7756 107.327 14.1375 107.678 14.409C108.045 14.6653 108.541 14.7935 109.167 14.7935Z" fill="black"/>
<path d="M118.48 4.81807H122.03V12.0565L128.032 4.81807H131.308V16.9877H127.757V9.74925L121.778 16.9877H118.48V4.81807ZM124.665 3.50611C121.977 3.50611 120.625 2.33741 120.61 0H122.947C122.962 0.527802 123.107 0.942503 123.382 1.2441C123.672 1.53062 124.092 1.67388 124.642 1.67388C125.192 1.67388 125.612 1.53062 125.902 1.2441C126.207 0.942503 126.36 0.527802 126.36 0H128.742C128.727 2.33741 127.368 3.50611 124.665 3.50611Z" fill="black"/>
<path d="M146.77 16.9877V9.70401L143.082 15.8114H141.57L137.973 9.68139V16.9877H134.743V4.81807H138.477L142.418 11.8529L146.61 4.81807H149.954L150 16.9877H146.77Z" fill="black"/>
<path d="M46.9684 32.1026C48.0692 32.3579 48.6196 33.0167 48.6196 34.0789C48.6196 34.7836 48.3573 35.3249 47.8326 35.7028C47.3079 36.0807 46.526 36.2697 45.4869 36.2697H41.7986V28.2113H45.3788C46.3048 28.2113 47.0301 28.3901 47.5548 28.7475C48.0795 29.105 48.3418 29.6157 48.3418 30.2795C48.3418 30.7187 48.2184 31.0966 47.9715 31.4132C47.7348 31.7196 47.4005 31.9494 46.9684 32.1026ZM42.8634 31.7962H45.3017C45.9293 31.7962 46.4077 31.6788 46.7369 31.4438C47.0764 31.2089 47.2462 30.8668 47.2462 30.4174C47.2462 29.968 47.0764 29.631 46.7369 29.4063C46.4077 29.1816 45.9293 29.0692 45.3017 29.0692H42.8634V31.7962ZM45.4406 35.4117C46.1402 35.4117 46.6649 35.2994 47.0147 35.0747C47.3645 34.85 47.5394 34.4976 47.5394 34.0176C47.5394 33.5376 47.3799 33.1852 47.061 32.9605C46.742 32.7256 46.2379 32.6082 45.5486 32.6082H42.8634V35.4117H45.4406Z" fill="black"/>
<path d="M54.5826 36.3463C53.7802 36.3463 53.06 36.1726 52.4221 35.8254C51.7945 35.4781 51.3007 34.993 50.9406 34.37C50.5805 33.7367 50.4005 33.0269 50.4005 32.2405C50.4005 31.4541 50.5805 30.7493 50.9406 30.1263C51.3007 29.5033 51.7945 29.0182 52.4221 28.6709C53.06 28.3237 53.7802 28.15 54.5826 28.15C55.2822 28.15 55.9047 28.2879 56.4499 28.5637C57.0055 28.8292 57.4428 29.2224 57.7617 29.7433L56.9438 30.2948C56.6763 29.8965 56.3368 29.6003 55.9252 29.4063C55.5137 29.202 55.0662 29.0999 54.5826 29.0999C53.9962 29.0999 53.4664 29.2327 52.9931 29.4982C52.5301 29.7535 52.1649 30.1212 51.8974 30.6012C51.6402 31.0813 51.5116 31.6277 51.5116 32.2405C51.5116 32.8635 51.6402 33.415 51.8974 33.895C52.1649 34.3649 52.5301 34.7325 52.9931 34.9981C53.4664 35.2534 53.9962 35.3811 54.5826 35.3811C55.0662 35.3811 55.5137 35.2841 55.9252 35.09C56.3368 34.896 56.6763 34.5998 56.9438 34.2014L57.7617 34.753C57.4428 35.2738 57.0055 35.6722 56.4499 35.9479C55.8944 36.2135 55.2719 36.3463 54.5826 36.3463Z" fill="black"/>
<path d="M66.8465 32.5775H60.0563C60.118 33.415 60.4421 34.0942 61.0285 34.6151C61.6149 35.1258 62.3557 35.3811 63.2508 35.3811C63.7549 35.3811 64.2179 35.2943 64.6397 35.1206C65.0615 34.9368 65.4267 34.6713 65.7354 34.324L66.3527 35.0287C65.9926 35.4577 65.5399 35.7845 64.9946 36.0092C64.4596 36.2339 63.8681 36.3463 63.2199 36.3463C62.3866 36.3463 61.6458 36.1726 60.9977 35.8254C60.3598 35.4679 59.8608 34.9777 59.5007 34.3546C59.1406 33.7316 58.9606 33.0269 58.9606 32.2405C58.9606 31.4541 59.1303 30.7493 59.4699 30.1263C59.8197 29.5033 60.2929 29.0182 60.8896 28.6709C61.4966 28.3237 62.1756 28.15 62.9267 28.15C63.6777 28.15 64.3516 28.3237 64.9483 28.6709C65.545 29.0182 66.0131 29.5033 66.3527 30.1263C66.6922 30.7391 66.8619 31.4438 66.8619 32.2405L66.8465 32.5775ZM62.9267 29.0846C62.1448 29.0846 61.4863 29.3348 60.9514 29.8352C60.4267 30.3255 60.1283 30.9689 60.0563 31.7656H65.8125C65.7405 30.9689 65.437 30.3255 64.902 29.8352C64.3773 29.3348 63.7189 29.0846 62.9267 29.0846Z" fill="black"/>
<path d="M75.0281 29.1765H70.383V36.2697H69.2873V28.2113H75.0281V29.1765Z" fill="black"/>
<path d="M84.0311 35.3198V38.2153H82.9971V36.2697H75.7285V38.2153H74.6945V35.3198H75.1575C75.7028 35.2892 76.0732 34.8908 76.2686 34.1248C76.4641 33.3588 76.5979 32.2864 76.6699 30.9076L76.7779 28.2113H82.7656V35.3198H84.0311ZM77.673 30.9689C77.6215 32.1128 77.5238 33.0576 77.3798 33.8031C77.2357 34.5385 76.9785 35.044 76.6081 35.3198H81.6699V29.1765H77.7656L77.673 30.9689Z" fill="black"/>
<path d="M88.9596 28.15C90.0193 28.15 90.8321 28.4156 91.3979 28.9467C91.9638 29.4676 92.2467 30.2438 92.2467 31.2753V36.2697H91.1973V35.0134C90.9504 35.4322 90.5852 35.759 90.1016 35.9939C89.6284 36.2288 89.0625 36.3463 88.4041 36.3463C87.4987 36.3463 86.7785 36.1318 86.2435 35.7028C85.7086 35.2738 85.4411 34.707 85.4411 34.0023C85.4411 33.318 85.688 32.7665 86.1818 32.3477C86.6859 31.929 87.4833 31.7196 88.5738 31.7196H91.151V31.2294C91.151 30.5349 90.9555 30.0089 90.5646 29.6514C90.1736 29.2837 89.6026 29.0999 88.8516 29.0999C88.3372 29.0999 87.8434 29.1867 87.3701 29.3603C86.8969 29.5237 86.4905 29.7535 86.151 30.0497L85.6571 29.2378C86.0687 28.8905 86.5625 28.625 87.1386 28.4411C87.7148 28.2471 88.3218 28.15 88.9596 28.15ZM88.5738 35.4883C89.1911 35.4883 89.721 35.3504 90.1634 35.0747C90.6057 34.7887 90.935 34.3802 91.151 33.8491V32.5316H88.6047C87.2158 32.5316 86.5213 33.0116 86.5213 33.9716C86.5213 34.4415 86.7014 34.8142 87.0615 35.09C87.4216 35.3556 87.9257 35.4883 88.5738 35.4883Z" fill="black"/>
<path d="M102.598 36.3463C101.795 36.3463 101.075 36.1726 100.437 35.8254C99.8095 35.4781 99.3156 34.993 98.9555 34.37C98.5955 33.7367 98.4154 33.0269 98.4154 32.2405C98.4154 31.4541 98.5955 30.7493 98.9555 30.1263C99.3156 29.5033 99.8095 29.0182 100.437 28.6709C101.075 28.3237 101.795 28.15 102.598 28.15C103.297 28.15 103.92 28.2879 104.465 28.5637C105.02 28.8292 105.458 29.2224 105.777 29.7433L104.959 30.2948C104.691 29.8965 104.352 29.6003 103.94 29.4063C103.529 29.202 103.081 29.0999 102.598 29.0999C102.011 29.0999 101.481 29.2327 101.008 29.4982C100.545 29.7535 100.18 30.1212 99.9123 30.6012C99.6551 31.0813 99.5265 31.6277 99.5265 32.2405C99.5265 32.8635 99.6551 33.415 99.9123 33.895C100.18 34.3649 100.545 34.7325 101.008 34.9981C101.481 35.2534 102.011 35.3811 102.598 35.3811C103.081 35.3811 103.529 35.2841 103.94 35.09C104.352 34.896 104.691 34.5998 104.959 34.2014L105.777 34.753C105.458 35.2738 105.02 35.6722 104.465 35.9479C103.909 36.2135 103.287 36.3463 102.598 36.3463Z" fill="black"/>
<path d="M117.107 32.1026C118.208 32.3579 118.758 33.0167 118.758 34.0789C118.758 34.7836 118.496 35.3249 117.971 35.7028C117.446 36.0807 116.665 36.2697 115.625 36.2697H111.937V28.2113H115.517C116.443 28.2113 117.169 28.3901 117.693 28.7475C118.218 29.105 118.48 29.6157 118.48 30.2795C118.48 30.7187 118.357 31.0966 118.11 31.4132C117.873 31.7196 117.539 31.9494 117.107 32.1026ZM113.002 31.7962H115.44C116.068 31.7962 116.546 31.6788 116.875 31.4438C117.215 31.2089 117.385 30.8668 117.385 30.4174C117.385 29.968 117.215 29.631 116.875 29.4063C116.546 29.1816 116.068 29.0692 115.44 29.0692H113.002V31.7962ZM115.579 35.4117C116.279 35.4117 116.803 35.2994 117.153 35.0747C117.503 34.85 117.678 34.4976 117.678 34.0176C117.678 33.5376 117.518 33.1852 117.2 32.9605C116.881 32.7256 116.376 32.6082 115.687 32.6082H113.002V35.4117H115.579Z" fill="black"/>
<path d="M124.119 28.15C125.179 28.15 125.992 28.4156 126.558 28.9467C127.123 29.4676 127.406 30.2438 127.406 31.2753V36.2697H126.357V35.0134C126.11 35.4322 125.745 35.759 125.261 35.9939C124.788 36.2288 124.222 36.3463 123.564 36.3463C122.658 36.3463 121.938 36.1318 121.403 35.7028C120.868 35.2738 120.601 34.707 120.601 34.0023C120.601 33.318 120.848 32.7665 121.342 32.3477C121.846 31.929 122.643 31.7196 123.734 31.7196H126.311V31.2294C126.311 30.5349 126.115 30.0089 125.724 29.6514C125.333 29.2837 124.762 29.0999 124.011 29.0999C123.497 29.0999 123.003 29.1867 122.53 29.3603C122.057 29.5237 121.65 29.7535 121.311 30.0497L120.817 29.2378C121.228 28.8905 121.722 28.625 122.298 28.4411C122.874 28.2471 123.481 28.15 124.119 28.15ZM123.734 35.4883C124.351 35.4883 124.881 35.3504 125.323 35.0747C125.765 34.7887 126.095 34.3802 126.311 33.8491V32.5316H123.764C122.375 32.5316 121.681 33.0116 121.681 33.9716C121.681 34.4415 121.861 34.8142 122.221 35.09C122.581 35.3556 123.085 35.4883 123.734 35.4883Z" fill="black"/>
<path d="M139.397 28.2113V36.2697H138.394V29.8965L135.107 35.2892H134.613L131.326 29.8812V36.2697H130.323V28.2113H131.434L134.876 34.0176L138.379 28.2113H139.397Z" fill="black"/>
<path d="M142.515 28.2113H143.611V34.6151L149.028 28.2113H150V36.2697H148.904V29.8659L143.503 36.2697H142.515V28.2113Z" fill="black"/>
<path d="M29.0031 3.86216L26.5861 4.80689V21.777L29.0031 22.5818V25.5909H18.4335V22.5818L20.8144 21.812V9.25062L15.9805 19.1878L12.0846 19.3627L7.43114 9.21563V21.812L9.88413 22.5818V25.5909H0V22.5818L2.41692 21.777V4.80689L0 4.03711V1.02798L10.1006 0.853027L14.754 12.3997L19.7322 1.02798L29.0031 0.853027V3.86216Z" fill="#A80011"/>
<rect y="32.4152" width="29.0031" height="4.26516" fill="#A80011"/>
</svg>
